<?xml version="1.0" standalone="no"?>
<!DOCTYPE svg PUBLIC "-//W3C//DTD SVG 1.1//EN" "http://www.w3.org/Graphics/SVG/1.1/DTD/svg11.dtd" >
<svg xmlns="http://www.w3.org/2000/svg" xmlns:xlink="http://www.w3.org/1999/xlink" version="1.1">
<metadata>
Created by FontForge 20170731 at Tue Sep 30 14:54:27 2014
 By Aleksey,,,
Copyright (c) Joffre LeFevre, Aboutype, Inc., 2001. All rights reserved.
</metadata>
<defs>
<font id="RaysCafeSolidW00-Regular" horiz-adv-x="614" >
  <font-face 
    font-family="RaysCafeSolidW00-Regular"
    font-weight="900"
    font-stretch="normal"
    units-per-em="2048"
    panose-1="2 0 5 4 5 0 0 2 0 4"
    ascent="1638"
    descent="-410"
    x-height="1055"
    cap-height="1368"
    bbox="98 -752 2503 1606"
    underline-thickness="102"
    underline-position="-460"
    unicode-range="U+0020-20AC"
  />
<missing-glyph 
 />
    <glyph glyph-name=".notdef" 
 />
    <glyph glyph-name="glyph1" horiz-adv-x="0" 
 />
    <glyph glyph-name="glyph1" horiz-adv-x="0" 
 />
    <glyph glyph-name="glyph2" 
 />
    <glyph glyph-name="space" unicode=" " 
 />
    <glyph glyph-name="space" unicode="&#xa0;" 
 />
    <glyph glyph-name="exclam" unicode="!" 
d="M565 399h-295l-24 969h344zM598 41q0 -38 -14 -71.5t-38.5 -58.5t-57.5 -39.5t-70 -14.5t-70 15t-58 40.5t-39.5 60t-14.5 72.5q0 37 14.5 68.5t39 55t58 37t72.5 13.5q35 0 67.5 -14.5t57 -38.5t39 -56.5t14.5 -68.5z" />
    <glyph glyph-name="quotedbl" unicode="&#x22;" horiz-adv-x="1020" 
d="M928 709h-152l-49 659h256zM471 709h-152l-51 659h260z" />
    <glyph glyph-name="numbersign" unicode="#" horiz-adv-x="1335" 
d="M1321 877h-223l-94 -519h221l-17 -79h-219l-76 -390h-84l72 390h-373l-73 -390h-82l69 390h-225l14 79h226l100 519h-225l14 81h225l76 410h88l-82 -410h377l76 410h86l-80 -410h225zM639 877l-94 -519h373l98 519h-377z" />
    <glyph glyph-name="dollar" unicode="$" horiz-adv-x="891" 
d="M903 483q0 -59 -23 -102.5t-60 -74.5t-84 -51t-95 -32v-332h-109v338h-49q-30 0 -65.5 9.5t-71 25t-68 34.5t-57.5 38l96 139q57 -40 124.5 -66t140.5 -26q13 0 33.5 4t39 14.5t32 28.5t13.5 47q0 19 -7.5 33.5t-20 25t-28 17.5t-30.5 12q-36 11 -75.5 21.5t-78 24
t-73 31.5t-60.5 44.5t-41.5 63t-15.5 86.5q0 63 23.5 109t62 78.5t87 53.5t98.5 33v233h96v-239q59 -13 114.5 -32.5t106.5 -53.5l-72 -129q-40 23 -85 38t-93 15q-20 0 -41.5 -5t-39.5 -15.5t-30 -27.5t-12 -42q0 -17 7 -29.5t18 -22t25 -16t28 -10.5q37 -12 77 -24.5
t78 -28t71.5 -36t58.5 -48.5t40 -66t15 -88z" />
    <glyph glyph-name="percent" unicode="%" horiz-adv-x="1653" 
d="M862 1065q0 -75 -23 -135.5t-64 -103t-96.5 -66t-119.5 -23.5q-71 0 -130.5 24t-102.5 67.5t-66.5 104.5t-23.5 136q0 66 24.5 124.5t67.5 102.5t100.5 69.5t122.5 25.5q66 0 123 -24t98.5 -67t65.5 -103t24 -132zM541 -109h-84l901 1477h80zM1642 190q0 -74 -23.5 -135
t-64.5 -104t-97 -66.5t-120 -23.5q-71 0 -130 24t-101.5 68t-66 105.5t-23.5 136.5q0 66 24 124.5t66 103t99 70t122 25.5q66 0 123.5 -24t100 -67.5t67 -104t24.5 -132.5zM721 1073q0 39 -8 80t-27.5 74.5t-52.5 55.5t-82 22q-51 0 -83.5 -24t-52 -60t-27 -77t-7.5 -75
q0 -38 9 -80.5t30 -78.5t55.5 -59.5t85.5 -23.5q50 0 81 24t48.5 60.5t24 80t6.5 81.5zM1497 199q0 38 -8 79t-27.5 74.5t-52.5 55.5t-82 22q-51 0 -83.5 -24t-51 -59.5t-26 -76.5t-7.5 -75q0 -38 9 -80.5t30 -78.5t55.5 -59.5t85.5 -23.5q50 0 81 24t48 60.5t23 79.5t6 82z
" />
    <glyph glyph-name="ampersand" unicode="&#x26;" horiz-adv-x="1671" 
d="M1348 -109l-123 146q-52 -43 -109.5 -79t-120 -61.5t-128.5 -40t-134 -14.5q-114 0 -209 32t-163.5 89t-106 136.5t-37.5 174.5q0 63 17.5 114t47.5 91t70.5 71t87 56t96 44.5t97.5 37.5q-41 36 -74.5 73t-57.5 78.5t-37 89.5t-13 105q0 92 36 164t97 121t141.5 74.5
t169.5 25.5q91 0 174.5 -26t146.5 -76t100.5 -122t37.5 -163q0 -82 -29 -142.5t-77 -106t-109.5 -78.5t-126.5 -60q71 -74 139.5 -144.5t130.5 -152.5q63 54 123.5 108.5t120.5 112.5l160 -172q-60 -55 -122 -105.5t-128 -98.5l274 -302h-362zM1114 1032q0 39 -16 72.5
t-42.5 58t-60.5 38t-71 13.5q-32 0 -66.5 -9t-62.5 -29t-46 -52.5t-18 -79.5q0 -44 16 -82t41.5 -70.5t56.5 -60t62 -51.5q40 22 77.5 44.5t66 51t46 66t17.5 90.5zM1069 190q-21 27 -43 55q-19 24 -42.5 52.5t-45.5 54.5q-40 47 -84.5 96t-93.5 87q-42 -16 -82.5 -36
t-71.5 -48t-50 -67t-19 -93q0 -64 23.5 -105.5t60 -66t80.5 -34t85 -9.5q42 0 85 14.5t75 30.5q17 8 38 19.5t40 22.5z" />
    <glyph glyph-name="quotesingle" unicode="'" horiz-adv-x="569" 
d="M471 709h-149l-52 659h258z" />
    <glyph glyph-name="parenleft" unicode="(" 
d="M631 1352q-60 -114 -104.5 -242.5t-74.5 -262t-44.5 -267.5t-14.5 -258q0 -158 14.5 -287t43.5 -247t73.5 -232.5t104.5 -241.5l-94 -64q-67 114 -120 243t-89.5 264.5t-56 272t-19.5 265.5q0 135 19 279.5t54.5 288.5t86 282.5t112.5 261.5l109 -55v0z" />
    <glyph glyph-name="parenright" unicode=")" 
d="M612 360q0 -135 -19 -279.5t-54 -288.5t-85 -282.5t-112 -261.5l-113 60q60 114 105 242.5t75 262t45 267t15 258.5q0 157 -14.5 286.5t-44.5 247.5t-74.5 232t-104.5 242l99 59q67 -114 119.5 -243t88.5 -264t55 -272t19 -266z" />
    <glyph glyph-name="asterisk" unicode="*" horiz-adv-x="813" 
d="M580 1049l141 -207l-64 -43l-141 198l-154 -196l-63 45l158 196l-238 86l29 72l235 -92v260h78v-256l230 74l24 -72z" />
    <glyph glyph-name="plus" unicode="+" horiz-adv-x="1229" 
d="M842 252v-418h-209v418h-412v207h412v418h209v-418h409v-207h-409z" />
    <glyph glyph-name="comma" unicode="," 
d="M303 -461h-153l235 617h264z" />
    <glyph glyph-name="hyphen" unicode="-" horiz-adv-x="954" 
d="M254 418v256h661v-256h-661z" />
    <glyph glyph-name="period" unicode="." 
d="M604 23q0 -39 -15 -73t-40.5 -60t-60 -41t-72.5 -15q-39 0 -73.5 15t-60.5 41t-41.5 60t-15.5 73q0 38 15.5 72.5t41.5 60t60.5 40.5t73.5 15q38 0 72.5 -15t60 -40.5t40.5 -60t15 -72.5z" />
    <glyph glyph-name="slash" unicode="/" horiz-adv-x="649" 
d="M389 -111h-211l309 1479h211z" />
    <glyph glyph-name="zero" unicode="0" horiz-adv-x="1624" 
d="M1642 643q0 -120 -23.5 -227t-67.5 -196.5t-106.5 -161t-140.5 -121.5t-170 -76.5t-194 -26.5q-152 0 -283.5 57t-229 159t-153 244t-55.5 312q0 190 53.5 341.5t149.5 257.5t228 162t290 56q100 0 191 -25.5t169 -73.5t141.5 -117t108 -156t68.5 -189.5t24 -218.5z
M1329 631q0 115 -25 213t-75 170t-126 112.5t-179 40.5q-105 0 -179 -42.5t-121.5 -116t-69.5 -172.5t-22 -213q0 -116 26 -213.5t77.5 -168t128.5 -110t180 -39.5t176 42t119.5 115t68 171.5t21.5 210.5z" />
    <glyph glyph-name="one" unicode="1" horiz-adv-x="864" 
d="M438 -109v1233h-223v244h541v-1477h-318z" />
    <glyph glyph-name="two" unicode="2" horiz-adv-x="1403" 
d="M276 -109l611 707q24 28 51 65.5t50 82t38.5 93t15.5 97.5q0 51 -16.5 94t-47.5 74.5t-75 49t-98 17.5q-63 0 -106.5 -21t-71.5 -56.5t-42 -83t-18 -99.5h-313q7 115 46.5 209t111 161.5t173.5 104.5t236 37q113 0 211.5 -37.5t171 -103t114.5 -154.5t42 -192
q0 -85 -25.5 -162.5t-69 -150t-100 -138.5t-118.5 -127.5t-125.5 -118t-120.5 -108.5h600v-240h-1125z" />
    <glyph glyph-name="three" unicode="3" horiz-adv-x="1432" 
d="M1442 299q0 -104 -47.5 -189t-127 -146t-183.5 -94.5t-218 -33.5t-217.5 31.5t-184 92.5t-132 149t-60.5 202h314q5 -46 22 -88.5t49 -75t80.5 -52t116.5 -19.5q60 0 108 19t82 53t52 81.5t18 104.5q0 76 -27.5 127.5t-73.5 82.5t-106.5 44.5t-126.5 13.5h-30v170h24
q60 0 112.5 8.5t91 33t61 69t22.5 116.5q0 50 -17.5 91t-47.5 69.5t-69.5 44t-84.5 15.5t-82.5 -15t-66 -41.5t-47 -62.5t-25.5 -78h-277q9 90 52.5 164t110.5 126.5t153.5 81.5t181.5 29q98 0 189 -27.5t161 -79t112 -125t42 -165.5q0 -69 -20 -117t-54.5 -83t-80.5 -61.5
t-99 -53.5q77 -29 141.5 -61.5t111 -79t72 -112t25.5 -159.5z" />
    <glyph glyph-name="four" unicode="4" horiz-adv-x="1423" 
d="M1229 231v-340h-299v340h-699v246l658 891h340v-932h209v-205h-209zM940 1108l-508 -676h508v676z" />
    <glyph glyph-name="five" unicode="5" horiz-adv-x="1307" 
d="M1305 371q0 -129 -51.5 -229t-135.5 -168.5t-191.5 -104t-219.5 -35.5q-75 0 -142.5 9.5t-129.5 27.5t-119.5 43t-112.5 57l41 238q88 -54 191 -89.5t208 -35.5q76 0 139.5 20t109 58t70.5 92.5t25 122.5q0 81 -37 137t-96.5 90t-134.5 49t-150 15q-63 0 -127.5 -11
t-124.5 -28l129 739h740v-233h-551l-37 -299q38 4 71 8q29 3 58.5 5.5t46.5 2.5q108 0 204 -32t169 -93.5t115.5 -151t42.5 -204.5z" />
    <glyph glyph-name="six" unicode="6" horiz-adv-x="1434" 
d="M1460 381q0 -136 -50.5 -238t-135.5 -170.5t-197.5 -102.5t-236.5 -34q-132 0 -245 37t-195 107t-128.5 170t-46.5 225q0 78 15.5 143.5t45 127t72 122.5t95.5 129l364 471h389l-518 -582q36 12 76 26t81.5 26t82.5 20t80 8q96 0 178.5 -39t143.5 -105.5t95.5 -154.5
t34.5 -186zM1143 373q0 62 -22.5 115.5t-63.5 93t-97.5 62t-123.5 22.5q-63 0 -117.5 -23t-95 -63t-63.5 -94t-23 -115q0 -62 22.5 -115t62.5 -93t94.5 -62.5t119.5 -22.5q67 0 123 22.5t97 62.5t64 94t23 116z" />
    <glyph glyph-name="seven" unicode="7" horiz-adv-x="1372" 
d="M631 -109h-371l717 1239h-696v238h1161z" />
    <glyph glyph-name="eight" unicode="8" horiz-adv-x="1393" 
d="M1401 270q0 -101 -41 -182t-117.5 -137.5t-186 -86.5t-245.5 -30q-143 0 -249.5 32.5t-177.5 91.5t-106.5 141.5t-35.5 181.5q0 81 27 142.5t73.5 106t110 72t135.5 41.5v96h-47q-9 0 -29.5 7.5t-46 23t-52.5 40.5t-49 60t-36.5 81t-14.5 104q0 84 38 152t106.5 115.5
t164 73t209.5 25.5q103 0 191.5 -26t153.5 -74t102 -116t37 -152q0 -68 -16.5 -118.5t-48 -88.5t-78 -65t-107.5 -48l-31 -82q77 -14 144 -42.5t116.5 -75t78 -111.5t28.5 -152zM1040 1032q0 49 -18 88.5t-49 67t-72 42.5t-86 15q-47 0 -88.5 -16.5t-72 -46t-48.5 -69.5
t-18 -87q0 -51 18 -93t49 -72t73.5 -46t90.5 -16q53 0 94.5 17t69.5 48t42.5 74t14.5 94zM1081 315q0 53 -18.5 100.5t-52 83t-80.5 56t-103 20.5q-57 0 -105.5 -21.5t-83 -58.5t-54 -86t-19.5 -104q0 -52 20 -98t54.5 -80t80.5 -54t99 -20q61 0 109.5 21t82.5 56.5t52 83
t18 101.5z" />
    <glyph glyph-name="nine" unicode="9" horiz-adv-x="1434" 
d="M1448 903q0 -71 -16.5 -134t-47.5 -126q-32 -66 -74.5 -133.5t-90.5 -142.5l-301 -476h-375l473 648q-31 -13 -78.5 -34.5t-99 -42t-100 -35.5t-81.5 -15q-98 0 -178 34.5t-137.5 97t-89 148.5t-31.5 189q0 134 50.5 235.5t136.5 169.5t199.5 102.5t240.5 34.5
q132 0 242 -34.5t189.5 -100.5t124 -163t44.5 -222zM1137 899q0 61 -23 114.5t-64 93.5t-96.5 62.5t-119.5 22.5q-67 0 -123 -23t-96 -62.5t-62.5 -93.5t-22.5 -116t22 -115.5t62 -93t96 -62t124 -22.5q63 0 118 23t96 63t65 93.5t24 115.5z" />
    <glyph glyph-name="colon" unicode=":" 
d="M614 692q0 -38 -15.5 -72.5t-41.5 -60t-60.5 -40.5t-72.5 -15t-72.5 15t-60 40.5t-40.5 60t-15 72.5q0 39 15 73t40.5 60t60 41t72.5 15t72.5 -15t60.5 -41t41.5 -60t15.5 -73zM614 23q0 -39 -15.5 -73t-41.5 -60t-60.5 -41t-72.5 -15t-72.5 15t-60 41t-40.5 60t-15 73
q0 38 15 72.5t40.5 60t60 40.5t72.5 15t72.5 -15t60.5 -40.5t41.5 -60t15.5 -72.5z" />
    <glyph glyph-name="semicolon" unicode=";" 
d="M711 692q0 -38 -14.5 -72.5t-40 -60t-59.5 -40.5t-73 -15q-38 0 -72.5 15t-60 40.5t-40.5 60t-15 72.5q0 39 15 73t40.5 60t60 41t72.5 15q39 0 73 -15t59.5 -41t40 -60t14.5 -73zM287 -461h-154l236 617h264z" />
    <glyph glyph-name="equal" unicode="=" horiz-adv-x="1229" 
d="M209 555v207h1030v-207h-1030zM209 -49v207h1030v-207h-1030z" />
    <glyph glyph-name="question" unicode="?" horiz-adv-x="1210" 
d="M1227 969q0 -85 -26.5 -155.5t-75.5 -122t-118 -83t-153 -37.5l-27 -2v-178h-276v346h111q43 0 88.5 14.5t83 43.5t61 73t23.5 103q0 55 -18.5 94t-49 63.5t-68.5 36t-77 11.5q-34 0 -65 -9.5t-56.5 -29t-43 -50t-24.5 -73.5h-299q19 101 59.5 173.5t103 119t147 68.5
t192.5 22q111 0 204.5 -31.5t161 -88t105 -135.5t37.5 -173zM891 31q0 -39 -15 -73t-41 -60t-60 -41t-73 -15q-38 0 -72 15t-59.5 41t-40 60t-14.5 73q0 38 14.5 72.5t40 60t59.5 40.5t72 15q39 0 73 -15t60 -40.5t41 -60t15 -72.5z" />
    <glyph glyph-name="A" unicode="A" horiz-adv-x="1724" 
d="M1380 -109l-108 291h-610l-103 -291h-334l547 1475h404l544 -1475h-340zM969 1073l-234 -670h465z" />
    <glyph glyph-name="B" unicode="B" horiz-adv-x="1454" 
d="M1444 315q0 -112 -38.5 -192.5t-103.5 -132t-152.5 -75.5t-184.5 -24h-629v1477h602q97 0 171.5 -25.5t124.5 -71t75.5 -108t25.5 -137.5q0 -80 -25 -133.5t-66.5 -92t-96.5 -67.5t-115 -59q52 -11 103 -23t96.5 -29.5t84.5 -41.5t67.5 -60.5t44.5 -86.5t16 -118z
M1032 969q0 59 -22.5 96t-56.5 58t-74.5 28.5t-75.5 7.5h-162v-395h170q38 0 77.5 9t71.5 32.5t52 63t20 100.5zM1130 336q0 64 -25 106t-63.5 66t-84 33.5t-87.5 9.5h-229v-440h238q43 0 87.5 10t81 35t59.5 68.5t23 111.5z" />
    <glyph glyph-name="C" unicode="C" horiz-adv-x="1427" 
d="M1378 1028q-32 20 -68.5 36.5t-78.5 28.5t-91.5 18.5t-107.5 6.5q-112 0 -198 -39.5t-144.5 -108t-88.5 -161t-30 -199.5q0 -105 36.5 -191t101 -146.5t152.5 -94t190 -33.5q97 0 176 25t147 63v-292q-46 -20 -87 -37t-82 -29t-84.5 -18.5t-94.5 -6.5q-161 0 -302 55.5
t-246.5 156t-166.5 241.5t-61 311q0 119 26.5 225t75 194.5t117 158.5t153 118.5t183 74.5t207.5 26q56 0 102.5 -3t89.5 -12t85 -24t89 -39v-305v0z" />
    <glyph glyph-name="D" unicode="D" horiz-adv-x="1667" 
d="M1642 647q0 -109 -23 -207.5t-66.5 -182.5t-105.5 -151.5t-139 -115.5t-168 -73.5t-192 -25.5h-612v1477h608q148 0 275.5 -53t221.5 -148t147.5 -227.5t53.5 -292.5zM1321 653q0 97 -31.5 182t-88 148t-134.5 99t-172 36h-240v-966h228q103 0 184 38.5t137.5 106
t86.5 159t30 197.5z" />
    <glyph glyph-name="E" unicode="E" horiz-adv-x="1253" 
d="M336 -109v1477h815v-264h-502v-346h471v-256h-471v-355h510v-256h-823z" />
    <glyph glyph-name="F" unicode="F" horiz-adv-x="1169" 
d="M649 1104v-346h447v-256h-447v-611h-313v1477h827v-264h-514z" />
    <glyph glyph-name="G" unicode="G" horiz-adv-x="1790" 
d="M1780 651q0 -168 -40.5 -316.5t-130.5 -260t-234 -176t-351 -64.5q-118 0 -221 28.5t-189 80.5t-153.5 124.5t-114.5 161t-71.5 189t-24.5 209.5q0 114 27 217.5t77 191.5t120 160t155.5 122t184 77.5t206.5 27.5q212 0 369.5 -80t271.5 -249l-244 -131
q-34 48 -78.5 85.5t-96 63t-109 38.5t-117.5 13q-115 0 -197.5 -45t-135.5 -121t-78 -176t-25 -211q0 -105 26 -200.5t82.5 -167.5t146 -115t216.5 -43q83 0 153 28t122.5 78t85 118t40.5 149h-367v233h695v-39v0z" />
    <glyph glyph-name="H" unicode="H" horiz-adv-x="1741" 
d="M1317 -109v639h-668v-639h-313v1477h313v-592h668v592h317v-1477h-317z" />
    <glyph glyph-name="I" unicode="I" horiz-adv-x="760" 
d="M336 -109v1477h313v-1477h-313z" />
    <glyph glyph-name="J" unicode="J" horiz-adv-x="1087" 
d="M979 362q0 -120 -29 -214t-84.5 -158t-138 -97.5t-188.5 -33.5q-55 0 -103 9t-94.5 29.5t-95.5 54.5t-105 85l174 170q34 -34 79 -60t98 -26q55 0 88.5 17t51.5 49t24 78t6 104v999h317v-1006v0z" />
    <glyph glyph-name="K" unicode="K" horiz-adv-x="1653" 
d="M1243 -109l-557 746l496 731h368l-526 -696l627 -781h-408zM336 -109v1477h313v-1477h-313z" />
    <glyph glyph-name="L" unicode="L" horiz-adv-x="1157" 
d="M336 -109v1477h313v-1214h498v-263h-811z" />
    <glyph glyph-name="M" unicode="M" horiz-adv-x="2040" 
d="M1733 -109l-140 1041l-409 -1041h-133l-408 1053l-125 -1053h-317l229 1477h328l360 -942l361 942h342l235 -1477h-323z" />
    <glyph glyph-name="N" unicode="N" horiz-adv-x="1890" 
d="M1442 -109l-793 1027v-1027h-313v1477h338l803 -1018v1018h305v-1477h-340z" />
    <glyph glyph-name="O" unicode="O" horiz-adv-x="1913" 
d="M1886 645q0 -120 -29 -227t-82 -197t-127.5 -162t-165.5 -122t-196 -76.5t-219 -26.5q-121 0 -228.5 27.5t-198 78t-163 122t-123 160t-77.5 192t-27 217.5q0 118 29 223t82 193t127.5 157.5t165.5 118t196 74.5t219 26q117 0 223 -27.5t196.5 -78t164 -121t125.5 -157
t80 -186.5t28 -208zM1569 637q0 104 -38 195t-105.5 158.5t-159 106t-199.5 38.5t-199 -39t-157 -107.5t-103 -161.5t-37 -202t36 -201t101 -158.5t156 -103.5t201 -37t202.5 38t159.5 106t104.5 162t37.5 206z" />
    <glyph glyph-name="P" unicode="P" horiz-adv-x="1438" 
d="M1436 887q0 -110 -34 -194t-93 -140.5t-138 -85.5t-170 -29h-352v-547h-313v1477h653q94 0 176 -31.5t142 -92.5t94.5 -150.5t34.5 -206.5zM1120 903q0 73 -24 121.5t-63.5 77t-91 40t-105.5 11.5h-195v-508h190q50 0 101.5 10.5t93 39t68 78.5t26.5 130z" />
    <glyph glyph-name="Q" unicode="Q" horiz-adv-x="1913" 
d="M1642 -199q-32 41 -65 79.5t-68 76.5q-106 -53 -213.5 -88t-228.5 -35t-228.5 27.5t-198 78t-163 122t-123 160t-77.5 192t-27 217.5q0 118 29 223t82 193t127.5 157.5t165.5 118t196 74.5t219 26q117 0 224 -27.5t199 -78t166.5 -121t127.5 -157t81.5 -186.5t28.5 -208
q0 -87 -11.5 -157.5t-36.5 -133.5t-64 -123.5t-94 -126.5q63 -78 130.5 -153t135.5 -150h-314zM1579 641q0 105 -39.5 195.5t-108.5 158t-162 106t-200 38.5q-108 0 -201 -39t-160.5 -108t-106 -163t-38.5 -204t37 -202t104 -158t159 -103t202 -37q35 0 64.5 3.5t57 10.5
t55 17.5t58.5 23.5q-63 63 -124 127.5t-121 130.5h280q31 -35 61.5 -69.5t61.5 -69.5q28 43 50 82t38 79t24.5 84t8.5 97z" />
    <glyph glyph-name="R" unicode="R" horiz-adv-x="1493" 
d="M1139 -109q-82 140 -164.5 278t-169.5 275h-156v-553h-313v1477h575q99 0 188 -27.5t156.5 -82.5t107.5 -138.5t40 -195.5q0 -85 -18 -148t-54.5 -110.5t-92.5 -83t-132 -64.5q106 -155 205.5 -312t199.5 -315h-372zM1077 903q0 122 -66.5 184t-185.5 62h-184v-490h180
q48 0 94 12t82 40.5t58 75t22 116.5z" />
    <glyph glyph-name="S" unicode="S" horiz-adv-x="1264" 
d="M1264 299q0 -111 -48 -198t-128.5 -146t-185 -90t-218.5 -31q-71 0 -133.5 13t-120.5 35.5t-112.5 52.5t-110.5 65q11 21 25.5 49.5t30.5 59.5l32 62t29 56q32 -24 72 -46.5t85 -40.5t94.5 -29t100.5 -11q38 0 86 7.5t90 27t71 52t29 83.5q0 36 -8 63t-29 49.5t-59 42.5
t-98 42q-63 23 -125 46.5t-119 52.5t-106 65.5t-85 85t-56.5 111.5t-20.5 145q0 105 40.5 188.5t108.5 141.5t157 89t187 31q64 0 125 -12t117.5 -31.5t106.5 -44t92 -49.5l-119 -221q-32 20 -67.5 38.5t-73.5 33t-77 23.5t-77 9q-45 0 -83 -13t-65 -37.5t-42 -59t-15 -76.5
q0 -51 30 -85.5t79.5 -61t113 -49t129 -49t129 -61t113 -85.5t79.5 -122t30 -171z" />
    <glyph glyph-name="T" unicode="T" horiz-adv-x="1118" 
d="M838 1085v-1194h-332v1194h-322v281h979v-281h-325z" />
    <glyph glyph-name="U" unicode="U" horiz-adv-x="1735" 
d="M1626 410q0 -123 -41 -226.5t-123 -178.5t-204 -117t-285 -42q-126 0 -241.5 32.5t-203 97t-140 162t-52.5 227.5v1003h313v-917q0 -91 27 -153.5t73 -101.5t106 -56t126 -17q63 0 121.5 17.5t103.5 55t72 95.5t27 139v938h321v-958v0z" />
    <glyph glyph-name="V" unicode="V" horiz-adv-x="1755" 
d="M1151 -109h-324l-612 1477h354l428 -1110l422 1110h344z" />
    <glyph glyph-name="W" unicode="W" horiz-adv-x="2486" 
d="M2032 -109h-355l-323 1053l-318 -1053h-350l-475 1477h317l349 -1153l366 1153h225l373 -1149l350 1149h312z" />
    <glyph glyph-name="X" unicode="X" horiz-adv-x="1745" 
d="M1335 -109l-356 547l-356 -547h-383l559 785l-500 692h391l293 -453l289 453h375l-480 -680l564 -797h-396z" />
    <glyph glyph-name="Y" unicode="Y" horiz-adv-x="1642" 
d="M1100 557v-666h-305v658l-564 819h396l321 -528l316 528h378z" />
    <glyph glyph-name="Z" unicode="Z" horiz-adv-x="1442" 
d="M215 -109l705 1217h-678v260h1171l-711 -1229h721v-248h-1208z" />
    <glyph glyph-name="bracketleft" unicode="[" 
d="M332 -109v1477h325v-145h-184v-1188h184v-144h-325z" />
    <glyph glyph-name="bracketright" unicode="]" 
d="M201 -109v144h184v1188h-184v145h327v-1477h-327z" />
    <glyph glyph-name="underscore" unicode="_" horiz-adv-x="1167" 
d="M115 -434v94h1165v-94h-1165z" />
    <glyph glyph-name="a" unicode="a" horiz-adv-x="1554" 
d="M1200 -109v199q-45 -51 -87 -93t-90.5 -72t-107.5 -47t-139 -17q-120 0 -220.5 41t-172.5 119t-112 190.5t-40 255.5q0 124 43.5 235t119.5 195t179.5 133t223.5 49q73 0 127.5 -16.5t100.5 -45.5t89 -67.5t92 -83.5v189h281v-1164h-287zM1219 463q0 78 -27 144
t-74.5 113.5t-111 74t-136.5 26.5q-79 0 -142.5 -27.5t-108.5 -75t-69 -110.5t-24 -135t22.5 -137.5t65 -115.5t104.5 -79.5t140 -29.5q73 0 138.5 25.5t115 71.5t78.5 111t29 144z" />
    <glyph glyph-name="b" unicode="b" horiz-adv-x="1561" 
d="M1556 471q0 -125 -38 -235.5t-107 -194t-167 -132t-218 -48.5q-83 0 -143.5 15t-110.5 44t-97 71.5t-102 96.5v-197h-280v1477h287v-485q48 41 96.5 77t101 62.5t110.5 41.5t126 15q127 0 227.5 -49.5t170.5 -133t107 -194t37 -231.5zM1270 479q0 69 -25.5 131.5t-71 109
t-108.5 74t-137 27.5q-76 0 -141.5 -25t-114 -71t-76 -110.5t-27.5 -143.5q0 -83 27 -150.5t76.5 -115t118.5 -73.5t153 -26t145 31.5t101.5 83t60 119t19.5 139.5z" />
    <glyph glyph-name="c" unicode="c" horiz-adv-x="1106" 
d="M1092 -80q-14 -5 -32 -11.5t-40 -14.5q-47 -13 -96.5 -23t-89.5 -10q-136 0 -247.5 45.5t-190.5 125.5t-122 190t-43 239q0 85 20 164t57.5 147.5t91.5 125t121.5 97t148 62.5t170.5 22q37 0 68.5 -2t60 -7.5t56.5 -14t60 -21.5v-272q-48 25 -108.5 41t-122.5 16
q-75 0 -136.5 -31.5t-105.5 -83t-68 -117.5t-24 -136q0 -75 28 -136t76 -104t111.5 -66.5t134.5 -23.5q59 0 117 14.5t105 34.5v-250v0z" />
    <glyph glyph-name="d" unicode="d" horiz-adv-x="1552" 
d="M1208 -109v197q-55 -54 -101 -96t-96 -71t-110 -44.5t-143 -15.5q-121 0 -218.5 47.5t-166 129t-105.5 191t-37 234.5q0 121 40 232.5t113.5 196.5t176.5 136t230 51q94 0 182.5 -35t156.5 -100q4 -4 15.5 -16t24.5 -25q15 -15 32 -33v498h283v-1477h-277zM1221 465
q0 75 -25 140t-71 112.5t-109.5 74.5t-141.5 27q-83 0 -147.5 -29t-109 -77.5t-68 -112t-23.5 -131.5q0 -73 23.5 -138.5t67.5 -114.5t106 -78t139 -29q85 0 152 28t113 76t70 113t24 139z" />
    <glyph glyph-name="e" unicode="e" horiz-adv-x="1405" 
d="M502 410q16 -73 43 -131.5t69.5 -99.5t101.5 -63t140 -22q49 0 91 14.5t77.5 37.5t65 52t53.5 58q20 -12 47.5 -28t57.5 -33.5t59.5 -35t54.5 -32.5q-40 -60 -95 -109t-121.5 -84t-144 -54t-163.5 -19q-136 0 -248 40t-191.5 117t-123.5 191t-44 262q0 133 45 245
t125 192.5t189.5 125.5t238.5 45q125 0 230 -40.5t181 -120.5t118.5 -200t42.5 -280v-28h-899zM1122 582q-21 56 -43 105.5t-54.5 86.5t-80 58.5t-119.5 21.5q-73 0 -123 -20.5t-85.5 -57t-61 -86.5t-49.5 -108h616z" />
    <glyph glyph-name="f" unicode="f" horiz-adv-x="762" 
d="M850 1262q-20 3 -40.5 5.5t-37.5 2.5q-85 0 -126.5 -38t-41.5 -130v-47h207v-238h-205v-926h-280v926h-133v238h129v112q0 92 26 156.5t74 105t116 58.5t152 18q28 0 70.5 -3.5t89.5 -12.5v-227z" />
    <glyph glyph-name="g" unicode="g" horiz-adv-x="1495" 
d="M1430 -6q0 -134 -47 -235.5t-128.5 -170.5t-191 -104t-234.5 -35q-103 0 -195 23t-166 67.5t-126.5 108.5t-75.5 145h348q23 -32 47.5 -51.5t51.5 -31t58 -15.5t67 -4q53 0 105 13.5t93 43.5t66.5 77t25.5 114v188q-43 -38 -87 -73t-92 -61.5t-101.5 -42.5t-114.5 -16
q-110 0 -202 43t-159 118.5t-104 178.5t-37 224q0 120 36.5 226t103 185t159.5 124.5t205 45.5q80 0 137.5 -17t104.5 -48.5t89.5 -75t92.5 -96.5v213h271v-1061zM1161 498q0 70 -21 133.5t-63 111.5t-105.5 76.5t-148.5 28.5q-80 0 -139 -30.5t-98 -80t-58.5 -111.5
t-19.5 -126q0 -68 21 -130t60.5 -109t98 -75t133.5 -28q83 0 146.5 30.5t106.5 79t65 109t22 121.5z" />
    <glyph glyph-name="h" unicode="h" horiz-adv-x="1466" 
d="M1100 -109v691q0 43 -9 87.5t-35.5 80.5t-74 58.5t-125.5 22.5q-55 0 -104 -21t-86 -57.5t-58.5 -85.5t-21.5 -104v-672h-293v1477h289v-590q18 28 33 53q13 21 24.5 40.5t15.5 25.5q57 87 146 134.5t194 47.5q85 0 159.5 -29t129 -79t86 -117.5t31.5 -144.5v-818h-301z
" />
    <glyph glyph-name="i" unicode="i" horiz-adv-x="647" 
d="M625 1425q0 -38 -15 -72t-41 -59.5t-61 -40t-74 -14.5q-37 0 -69.5 14t-56.5 38t-38 57.5t-14 72.5t14.5 72.5t39 58.5t57.5 39.5t71 14.5q39 0 73 -14t59.5 -38.5t40 -57.5t14.5 -71zM293 -109v1164h289v-1164h-289z" />
    <glyph glyph-name="j" unicode="j" horiz-adv-x="647" 
d="M625 1425q0 -38 -15 -72t-41 -59.5t-61 -40t-74 -14.5q-37 0 -69.5 14t-56.5 38t-38 57.5t-14 72.5t14.5 72.5t39 58.5t57.5 39.5t71 14.5q39 0 73 -14t59.5 -38.5t40 -57.5t14.5 -71zM293 -518v1573h289v-1573h-289z" />
    <glyph glyph-name="k" unicode="k" horiz-adv-x="1346" 
d="M1028 -109q-112 153 -223.5 303.5t-222.5 303.5v-607h-289v1477h289v-852l428 539h336l-455 -531l498 -633h-361z" />
    <glyph glyph-name="l" unicode="l" horiz-adv-x="647" 
d="M293 -109v1477h289v-1477h-289z" />
    <glyph glyph-name="m" unicode="m" horiz-adv-x="2165" 
d="M1810 -113v691q0 119 -51 182t-168 63q-58 0 -104.5 -21.5t-79.5 -60t-50.5 -92t-17.5 -117.5v-641h-295v691q0 57 -11.5 102t-36.5 76t-65 47t-97 16q-59 0 -105 -20.5t-78.5 -58t-49.5 -91t-17 -118.5v-644h-291v1164h282v-258q39 51 79.5 101t88 90.5t105 65.5
t129.5 25q67 0 117.5 -15.5t90 -45.5t71.5 -73.5t61 -98.5q51 53 93 96t88.5 73.5t104 47t140.5 16.5t148.5 -28t111.5 -78t70 -118.5t24 -149.5v-818h-287z" />
    <glyph glyph-name="n" unicode="n" horiz-adv-x="1466" 
d="M1106 -109v691q0 43 -9 87.5t-35.5 80.5t-74 58.5t-125.5 22.5q-55 0 -104 -21t-86 -57.5t-58.5 -85.5t-21.5 -104v-672h-293v1164h289v-277q18 28 33 53q13 21 24.5 40.5t16.5 25.5q57 87 145.5 134.5t193.5 47.5q85 0 159.5 -29t129 -79t86 -117.5t31.5 -144.5v-818
h-301z" />
    <glyph glyph-name="o" unicode="o" horiz-adv-x="1509" 
d="M1503 473q0 -134 -46 -248t-130 -198t-201.5 -131.5t-261.5 -47.5q-134 0 -250 51t-201 137t-133.5 197.5t-48.5 233.5q0 87 22.5 166t63.5 147t99 123.5t129 94.5t153.5 60t173.5 21q134 0 249.5 -45.5t200 -126.5t133 -192t48.5 -242zM1221 479q0 71 -26.5 132.5
t-73 106.5t-111 71t-140.5 26q-80 0 -144.5 -28t-110.5 -76t-70.5 -112.5t-24.5 -137.5t26 -136t72.5 -109t110.5 -72.5t139 -26.5q81 0 146.5 25.5t111.5 72.5t70.5 114t24.5 150z" />
    <glyph glyph-name="p" unicode="p" horiz-adv-x="1552" 
d="M1548 477q0 -81 -17.5 -158t-50.5 -145.5t-81 -126t-109 -99t-135 -64.5t-158 -23q-47 0 -94.5 9.5t-92.5 27t-86 43t-75 57.5q-4 4 -15 15.5t-23 24.5q-14 15 -31 32v-588h-287v1573h280v-203q55 54 101.5 96t96.5 71t110 44.5t143 15.5q121 0 218 -47.5t165 -129
t104.5 -191.5t36.5 -234zM1253 471q0 74 -23.5 140t-67 115.5t-106.5 78.5t-141 29q-83 0 -149 -28t-112 -77t-70.5 -115.5t-24.5 -144.5q0 -79 27.5 -143.5t76 -110.5t114 -71t141.5 -25t137.5 29.5t105.5 79t68 112.5t24 131z" />
    <glyph glyph-name="q" unicode="q" horiz-adv-x="1552" 
d="M1202 -518v592q-46 -44 -92.5 -83t-97 -68.5t-108 -46.5t-126.5 -17q-127 0 -228 48t-172 131t-109 194t-38 237q0 124 41 234.5t114 194t174.5 132.5t221.5 49q57 0 109 -13t95.5 -34.5t78 -49t55.5 -56.5l88 -117v246h277v-1573h-283zM1208 459q0 77 -23 143t-67.5 115
t-110.5 76.5t-153 27.5q-78 0 -141 -29t-107.5 -78.5t-68 -115.5t-23.5 -139q0 -69 23.5 -132t67 -111t105.5 -76.5t138 -28.5t142 24.5t114.5 70t76 110t27.5 143.5z" />
    <glyph glyph-name="r" unicode="r" horiz-adv-x="887" 
d="M868 805q-138 0 -210 -94t-72 -287v-533h-293v1164h295v-242h22q16 45 37 92t55 85.5t85 63.5t128 25h41v-280q-36 6 -88 6z" />
    <glyph glyph-name="s" unicode="s" horiz-adv-x="1063" 
d="M1065 231q0 -88 -35.5 -157t-97 -116t-144.5 -72t-178 -25q-136 0 -234.5 46.5t-164.5 149.5l209 107q34 -44 85 -71t109 -27q22 0 53.5 6t60.5 21.5t49 41.5t20 66q0 41 -24.5 67.5t-64 46t-90.5 35.5t-104 34.5t-104 44t-90.5 64t-64 93.5t-24.5 133q0 79 31.5 145
t88.5 114t137 74.5t178 26.5q109 0 200 -53t148 -154l-205 -90q-29 44 -76.5 65t-99.5 21q-27 0 -53.5 -6.5t-47.5 -20.5t-34 -37t-13 -56q0 -26 11.5 -45.5t29.5 -35t39.5 -26.5t42.5 -18q49 -19 102 -36t104 -37t96.5 -46t80 -63.5t54.5 -88.5t20 -121z" />
    <glyph glyph-name="t" unicode="t" horiz-adv-x="729" 
d="M584 801v-910h-291v912h-123v252h123v313h291v-313h202v-254h-202z" />
    <glyph glyph-name="u" unicode="u" horiz-adv-x="1448" 
d="M1382 358q0 -120 -37 -212.5t-107 -155.5t-171 -96t-229 -33q-127 0 -228 34.5t-171.5 100.5t-108 160.5t-37.5 214.5v684h289v-674q0 -62 19 -110.5t53.5 -82t82 -51.5t105.5 -18q61 0 109.5 17.5t82 50.5t51 79.5t17.5 104.5v684h280v-697v0z" />
    <glyph glyph-name="v" unicode="v" horiz-adv-x="1397" 
d="M969 -109h-281l-483 1164h321l305 -826l293 826h299z" />
    <glyph glyph-name="w" unicode="w" horiz-adv-x="2099" 
d="M1692 -109h-260l-269 777l-262 -777h-262l-440 1164h295l288 -795l260 795h236l278 -795l283 795h289z" />
    <glyph glyph-name="x" unicode="x" horiz-adv-x="1468" 
d="M1116 -109l-285 422l-286 -422h-330l440 596l-422 568h349l249 -371l248 371h332l-407 -551l466 -613h-354z" />
    <glyph glyph-name="y" unicode="y" horiz-adv-x="1405" 
d="M729 -553h-301l262 565l-483 1043h319l303 -723l295 723h295z" />
    <glyph glyph-name="z" unicode="z" horiz-adv-x="1233" 
d="M254 -109l524 920h-479v244h930l-520 -920h530v-244h-985z" />
    <glyph glyph-name="endash" unicode="&#x2013;" horiz-adv-x="1640" 
d="M254 418v239h1374v-239h-1374z" />
    <glyph glyph-name="emdash" unicode="&#x2014;" horiz-adv-x="1901" 
d="M254 418v239h1634v-239h-1634z" />
    <glyph glyph-name="quoteleft" unicode="&#x2018;" 
d="M502 801l-301 567h227l209 -567h-135z" />
    <glyph glyph-name="quoteright" unicode="&#x2019;" 
d="M330 801h-135l208 567h228z" />
    <glyph glyph-name="quotedblleft" unicode="&#x201c;" horiz-adv-x="1229" 
d="M1116 801l-301 567h227l209 -567h-135zM528 801l-305 567h230l209 -567h-134z" />
    <glyph glyph-name="quotedblright" unicode="&#x201d;" horiz-adv-x="1229" 
d="M938 801h-135l209 567h227zM348 801h-135l207 567h229z" />
    <glyph glyph-name="Euro" unicode="&#x20ac;" horiz-adv-x="1524" 
d="M1364 1014q-184 196 -428 196q-230 0 -389 -159q-50 -50 -84.5 -106.5t-52.5 -119.5h874l-45 -110h-850q-2 -14 -3 -28t-1 -28t1 -27.5t3 -27.5h805l-49 -108h-735q18 -63 52.5 -119.5t84.5 -106.5q159 -159 389 -159q249 0 428 200v-161q-171 -150 -428 -150
q-279 0 -469 190q-66 67 -109 142.5t-63 163.5h-197l47 108h134q-2 14 -2.5 27.5t-0.5 27.5t0.5 28t2.5 28h-181l47 110h150q40 173 172 305q191 191 469 191t475 -197z" />
  </font>
</defs>
</svg>
